<svg width="109" height="48" viewBox="0 0 109 48" fill="none" xmlns="http://www.w3.org/2000/svg">
    <path
        d="M23.869 37.3044C20.971 37.3044 18.1382 36.445 15.7287 34.835C13.3191 33.225 11.4411 30.9367 10.3321 28.2593C9.22315 25.582 8.93298 22.6359 9.49834 19.7937C10.0637 16.9514 11.4592 14.3407 13.5083 12.2915C15.5575 10.2424 18.1682 8.8469 21.0105 8.28154C23.8527 7.71619 26.7988 8.00635 29.4761 9.11534C32.1535 10.2243 34.4418 12.1023 36.0518 14.5119C37.6618 16.9214 38.5211 19.7543 38.5211 22.6522C38.517 26.5369 36.972 30.2613 34.225 33.0083C31.4781 35.7552 27.7537 37.3002 23.869 37.3044ZM23.869 13.2174C22.003 13.2174 20.1788 13.7707 18.6273 14.8074C17.0757 15.8442 15.8665 17.3177 15.1524 19.0416C14.4383 20.7656 14.2514 22.6626 14.6155 24.4928C14.9795 26.323 15.8781 28.0041 17.1976 29.3236C18.5171 30.6431 20.1982 31.5416 22.0283 31.9057C23.8585 32.2697 25.7555 32.0829 27.4795 31.3688C29.2035 30.6547 30.677 29.4454 31.7137 27.8939C32.7504 26.3423 33.3038 24.5182 33.3038 22.6522C33.3005 20.1509 32.3055 17.753 30.5368 15.9843C28.7681 14.2157 26.3702 13.2206 23.869 13.2174Z"
        fill="white" />
    <path
        d="M42.5752 8.03313H42.6848C46.5708 8.02321 50.3015 9.55741 53.0564 12.2982C55.8112 15.039 57.3644 18.7619 57.3743 22.6479C57.3842 26.5339 55.85 30.2647 53.1092 33.0195C50.3684 35.7743 46.6455 37.3276 42.7595 37.3375L42.7317 32.1201C45.234 32.1139 47.6313 31.1139 49.3962 29.3401C51.1612 27.5663 52.1492 25.1641 52.143 22.6618C52.1368 20.1596 51.1368 17.7623 49.363 15.9973C47.5893 14.2323 45.187 13.2443 42.6848 13.2505H42.6204L42.5752 8.03313Z"
        fill="white" />
    <path
        d="M61.3584 8.03313H61.468C65.354 8.02321 69.0847 9.55741 71.8396 12.2982C74.5944 15.039 76.1476 18.7619 76.1575 22.6479C76.1674 26.5339 74.6332 30.2647 71.8924 33.0195C69.1516 35.7743 65.4287 37.3276 61.5427 37.3375L61.5149 32.1201C64.0172 32.1139 66.4145 31.1139 68.1794 29.3401C69.9444 27.5663 70.9325 25.1641 70.9262 22.6618C70.92 20.1596 69.92 17.7623 68.1462 15.9973C66.3725 14.2323 63.9702 13.2443 61.468 13.2505H61.4036L61.3584 8.03313Z"
        fill="white" />
    <path d="M5.21739 0H0V37.3913H5.21739V0Z" fill="white" />
    <path
        d="M93.9569 8.00001C90.5026 7.99699 87.1594 9.21967 84.5221 11.4504V8.00001H79.3047V48H84.5221V33.8539C86.3243 35.3715 88.4659 36.4319 90.7653 36.9454C93.0648 37.4588 95.4541 37.41 97.7306 36.8031C100.007 36.1963 102.104 35.0493 103.843 33.4594C105.581 31.8695 106.911 29.8837 107.719 27.6705C108.526 25.4572 108.788 23.0818 108.482 20.7457C108.176 18.4096 107.311 16.1818 105.96 14.2514C104.61 12.3209 102.813 10.7446 100.724 9.65635C98.6342 8.56808 96.3129 7.9999 93.9569 8.00001ZM93.9569 32.087C92.0908 32.087 90.2667 31.5336 88.7152 30.4969C87.1636 29.4602 85.9544 27.9867 85.2403 26.2627C84.5262 24.5387 84.3393 22.6417 84.7034 20.8115C85.0674 18.9814 85.966 17.3003 87.2855 15.9808C88.6049 14.6613 90.2861 13.7627 92.1162 13.3987C93.9464 13.0346 95.8434 13.2215 97.5674 13.9356C99.2914 14.6497 100.765 15.859 101.802 17.4105C102.838 18.962 103.392 20.7862 103.392 22.6522C103.388 25.1534 102.393 27.5513 100.625 29.32C98.856 31.0887 96.4581 32.0837 93.9569 32.087Z"
        fill="white" />
</svg>